<?xml version="1.0" encoding="UTF-8" standalone="no"?>
<!-- Created with Inkscape (http://www.inkscape.org/) -->

<svg
   xmlns:dc="http://purl.org/dc/elements/1.1/"
   xmlns:cc="http://creativecommons.org/ns#"
   xmlns:rdf="http://www.w3.org/1999/02/22-rdf-syntax-ns#"
   xmlns:svg="http://www.w3.org/2000/svg"
   xmlns="http://www.w3.org/2000/svg"
   xmlns:sodipodi="http://sodipodi.sourceforge.net/DTD/sodipodi-0.dtd"
   xmlns:inkscape="http://www.inkscape.org/namespaces/inkscape"
   width="248.03149"
   height="403.93701"
   id="svg4086"
   version="1.1"
   inkscape:version="0.48.3.1 r9886"
   sodipodi:docname="sonarBracket_2hole_final.svg">
  <sodipodi:namedview
     id="base"
     pagecolor="#ffffff"
     bordercolor="#666666"
     borderopacity="1.0"
     inkscape:pageopacity="0.0"
     inkscape:pageshadow="2"
     inkscape:zoom="1.7846344"
     inkscape:cx="66.63052"
     inkscape:cy="251.16292"
     inkscape:document-units="mm"
     inkscape:current-layer="layer1"
     showgrid="false"
     units="mm"
     showborder="true"
     inkscape:window-width="1391"
     inkscape:window-height="876"
     inkscape:window-x="49"
     inkscape:window-y="24"
     inkscape:window-maximized="1" />
  <defs
     id="defs4088" />
  <metadata
     id="metadata4091">
    <rdf:RDF>
      <cc:Work
         rdf:about="">
        <dc:format>image/svg+xml</dc:format>
        <dc:type
           rdf:resource="http://purl.org/dc/dcmitype/StillImage" />
        <dc:title />
      </cc:Work>
    </rdf:RDF>
  </metadata>
  <g
     inkscape:label="Layer 1"
     inkscape:groupmode="layer"
     id="layer1"
     transform="translate(0,-648.42518)">
    <path
       d="M 36.0625,665.0625 A 0.14462162,0.14462162 0 0 0 36.03125,665.0937 0.14462162,0.14462162 0 0 0 36,665.125 a 0.14462162,0.14462162 0 0 0 -0.03125,0.0312 0.14462162,0.14462162 0 0 0 0,0.0312 0.14462162,0.14462162 0 0 0 0,0.0312 l 0,98.84375 a 0.14462162,0.14462162 0 0 0 0,0.0312 0.14462162,0.14462162 0 0 0 0.03125,0.0625 0.14462162,0.14462162 0 0 0 0.03125,0.0312 0.14462162,0.14462162 0 0 0 0.03125,0 0.14462162,0.14462162 0 0 0 0.03125,0.0312 l 8.6875,0.25 0,13.8125 a 0.14462162,0.14462162 0 0 0 0.03125,0.0312 0.14462162,0.14462162 0 0 0 0,0.0312 0.14462162,0.14462162 0 0 0 0.03125,0.0312 0.14462162,0.14462162 0 0 0 0.03125,0.0312 0.14462162,0.14462162 0 0 0 0.03125,0 0.14462162,0.14462162 0 0 0 0.03125,0 l 17.375,0 a 0.14462162,0.14462162 0 0 0 0.03125,0 0.14462162,0.14462162 0 0 0 0.0625,-0.0312 0.14462162,0.14462162 0 0 0 0,-0.0312 0.14462162,0.14462162 0 0 0 0.03125,-0.0312 0.14462162,0.14462162 0 0 0 0,-0.0312 l 0,-13.8125 17.78125,0 0,13.8125 a 0.14462162,0.14462162 0 0 0 0,0.0312 0.14462162,0.14462162 0 0 0 0.03125,0.0312 0.14462162,0.14462162 0 0 0 0.03125,0.0312 0.14462162,0.14462162 0 0 0 0.03125,0.0312 0.14462162,0.14462162 0 0 0 0.03125,0 0.14462162,0.14462162 0 0 0 0.03125,0 l 17.34375,0 a 0.14462162,0.14462162 0 0 0 0.03125,0 0.14462162,0.14462162 0 0 0 0.03125,0 0.14462162,0.14462162 0 0 0 0.03125,-0.0312 0.14462162,0.14462162 0 0 0 0.03125,-0.0312 0.14462162,0.14462162 0 0 0 0.03125,-0.0312 0.14462162,0.14462162 0 0 0 0,-0.0312 l 0,-13.8125 53.21875,0 0,13.8125 a 0.14462162,0.14462162 0 0 0 0,0.0312 0.14462162,0.14462162 0 0 0 0.0312,0.0625 0.14462162,0.14462162 0 0 0 0.0312,0 0.14462162,0.14462162 0 0 0 0.0312,0.0312 0.14462162,0.14462162 0 0 0 0.0312,0 l 17.375,0 a 0.14462162,0.14462162 0 0 0 0.0312,0 0.14462162,0.14462162 0 0 0 0.0312,0 0.14462162,0.14462162 0 0 0 0.0312,-0.0312 0.14462162,0.14462162 0 0 0 0.0312,-0.0312 0.14462162,0.14462162 0 0 0 0.0312,-0.0625 l 0,-13.8125 17.78125,0 0,13.8125 a 0.14462162,0.14462162 0 0 0 0,0.0312 0.14462162,0.14462162 0 0 0 0.0312,0.0625 0.14462162,0.14462162 0 0 0 0.0312,0.0312 0.14462162,0.14462162 0 0 0 0.0312,0 0.14462162,0.14462162 0 0 0 0.0312,0 l 17.375,0 a 0.14462162,0.14462162 0 0 0 0.0312,0 0.14462162,0.14462162 0 0 0 0.0312,0 0.14462162,0.14462162 0 0 0 0.0312,-0.0312 0.14462162,0.14462162 0 0 0 0.0312,-0.0312 0.14462162,0.14462162 0 0 0 0,-0.0312 0.14462162,0.14462162 0 0 0 0.0312,-0.0312 l 0,-13.8125 8.75,-0.25 a 0.14462162,0.14462162 0 0 0 0.0312,-0.0312 0.14462162,0.14462162 0 0 0 0.0312,0 0.14462162,0.14462162 0 0 0 0.0312,-0.0312 0.14462162,0.14462162 0 0 0 0.0312,-0.0312 0.14462162,0.14462162 0 0 0 0,-0.0312 0.14462162,0.14462162 0 0 0 0,-0.0312 l 0,-98.84375 a 0.14462162,0.14462162 0 0 0 0,-0.0312 0.14462162,0.14462162 0 0 0 0,-0.0312 0.14462162,0.14462162 0 0 0 -0.0312,-0.0312 0.14462162,0.14462162 0 0 0 -0.0312,-0.0312 0.14462162,0.14462162 0 0 0 -0.0312,-0.0312 0.14462162,0.14462162 0 0 0 -0.0312,0 l -176.8125,0 a 0.14462162,0.14462162 0 0 0 -0.03125,0 0.14462162,0.14462162 0 0 0 -0.03125,0 z m 0.1875,0.28125 176.53125,0 0,98.5625 -8.75,0.28125 a 0.14462162,0.14462162 0 0 0 -0.0312,0 0.14462162,0.14462162 0 0 0 -0.0312,0 0.14462162,0.14462162 0 0 0 -0.0312,0.0312 0.14462162,0.14462162 0 0 0 -0.0312,0.0312 0.14462162,0.14462162 0 0 0 0,0.0312 0.14462162,0.14462162 0 0 0 -0.0312,0.0312 0.14462162,0.14462162 0 0 0 0,0.0312 l 0,13.78125 -17.0625,0 0,-13.78125 a 0.14462162,0.14462162 0 0 0 0,-0.0312 0.14462162,0.14462162 0 0 0 0,-0.0312 0.14462162,0.14462162 0 0 0 -0.0312,-0.0312 0.14462162,0.14462162 0 0 0 -0.0312,-0.0312 0.14462162,0.14462162 0 0 0 -0.0312,-0.0312 0.14462162,0.14462162 0 0 0 -0.0312,0 0.14462162,0.14462162 0 0 0 -0.0312,0 l -18.0625,0 a 0.14462162,0.14462162 0 0 0 -0.0312,0 0.14462162,0.14462162 0 0 0 -0.0625,0.0312 0.14462162,0.14462162 0 0 0 -0.0312,0.0312 0.14462162,0.14462162 0 0 0 0,0.0312 0.14462162,0.14462162 0 0 0 -0.0312,0.0625 l 0,13.78125 -17.0625,0 0,-13.78125 a 0.14462162,0.14462162 0 0 0 0,-0.0312 0.14462162,0.14462162 0 0 0 0,-0.0312 0.14462162,0.14462162 0 0 0 -0.0312,-0.0312 0.14462162,0.14462162 0 0 0 -0.0312,-0.0312 0.14462162,0.14462162 0 0 0 -0.0312,-0.0312 0.14462162,0.14462162 0 0 0 -0.0312,0 0.14462162,0.14462162 0 0 0 -0.0312,0 l -53.5,0 a 0.14462162,0.14462162 0 0 0 -0.03125,0 0.14462162,0.14462162 0 0 0 -0.03125,0.0312 0.14462162,0.14462162 0 0 0 -0.03125,0 0.14462162,0.14462162 0 0 0 0,0.0312 0.14462162,0.14462162 0 0 0 -0.03125,0.0312 0.14462162,0.14462162 0 0 0 0,0.0312 0.14462162,0.14462162 0 0 0 0,0.0312 l 0,13.78125 -17.09375,0 0,-13.78125 a 0.14462162,0.14462162 0 0 0 0,-0.0312 0.14462162,0.14462162 0 0 0 0,-0.0312 0.14462162,0.14462162 0 0 0 0,-0.0312 0.14462162,0.14462162 0 0 0 -0.03125,-0.0312 0.14462162,0.14462162 0 0 0 -0.03125,0 0.14462162,0.14462162 0 0 0 -0.03125,-0.0312 0.14462162,0.14462162 0 0 0 -0.03125,0 l -18.0625,0 a 0.14462162,0.14462162 0 0 0 -0.03125,0 0.14462162,0.14462162 0 0 0 -0.03125,0 0.14462162,0.14462162 0 0 0 -0.03125,0.0312 0.14462162,0.14462162 0 0 0 -0.03125,0.0312 0.14462162,0.14462162 0 0 0 -0.03125,0.0312 0.14462162,0.14462162 0 0 0 0,0.0312 0.14462162,0.14462162 0 0 0 0,0.0312 l 0,13.78125 -17.0625,0 0,-13.78125 a 0.14462162,0.14462162 0 0 0 0,-0.0312 0.14462162,0.14462162 0 0 0 -0.03125,-0.0312 0.14462162,0.14462162 0 0 0 0,-0.0312 0.14462162,0.14462162 0 0 0 -0.03125,-0.0312 A 0.14462162,0.14462162 0 0 0 45,764.1875 a 0.14462162,0.14462162 0 0 0 -0.03125,0 0.14462162,0.14462162 0 0 0 -0.03125,0 l -8.6875,-0.28125 0,-98.5625 z m 16.486185,69.71427 c -2.933273,0 -5.324012,2.39074 -5.324012,5.32398 0,2.93324 2.390739,5.32398 5.324012,5.32398 2.933273,0 5.301357,-2.39074 5.301357,-5.32398 0,-2.93324 -2.368084,-5.32398 -5.301357,-5.32398 z m 0,0.36249 c 2.741561,0 4.961526,2.21994 4.961526,4.96149 0,2.74155 -2.219965,4.96156 -4.961526,4.96149 -2.741561,0 -4.961526,-2.21994 -4.961526,-4.96149 0,-2.74155 2.219965,-4.96156 4.961526,-4.96149 z M 194.46714,676.35602 c -2.93327,0 -5.32401,2.39074 -5.32401,5.32398 0,2.93324 2.39074,5.32398 5.32401,5.32398 2.93328,0 5.30136,-2.39074 5.30136,-5.32398 0,-2.93324 -2.36808,-5.32398 -5.30136,-5.32398 z m 0,0.36249 c 2.74157,0 4.96153,2.21994 4.96153,4.96149 0,2.74155 -2.21996,4.96156 -4.96153,4.96149 -2.74156,0 -4.96152,-2.21994 -4.96152,-4.96149 0,-2.74155 2.21996,-4.96156 4.96152,-4.96149 z M 171.424,682.7954 c -15.65208,0 -28.34001,12.7127 -28.34001,28.36733 0,15.65462 12.68793,28.32708 28.34001,28.32708 15.65207,0 28.34,-12.67246 28.34,-28.32708 0,-15.65463 -12.68793,-28.36733 -28.34,-28.36733 z m 0,0.36214 c 15.4743,0 28.02113,12.53343 28.02113,28.00519 0,15.47175 -12.54683,28.00518 -28.02113,28.00518 -15.4743,0 -28.02113,-12.53343 -28.02113,-28.00518 0,-15.47176 12.54683,-28.00519 28.02113,-28.00519 z m -93.900969,-0.3623 c -15.652072,0 -28.340075,12.71276 -28.340075,28.36739 0,15.65463 12.688003,28.32716 28.340075,28.32716 15.652073,0 28.340079,-12.67253 28.340079,-28.32716 0,-15.65463 -12.688006,-28.36739 -28.340079,-28.36739 z m 0,0.36214 c 15.474376,0 28.021199,12.53343 28.021199,28.00525 0,15.47183 -12.546823,28.00526 -28.021199,28.00526 -15.474375,0 -28.021199,-12.53343 -28.021199,-28.00526 0,-15.47182 12.546824,-28.00525 28.021199,-28.00525 z"
       style="font-size:medium;font-style:normal;font-variant:normal;font-weight:normal;font-stretch:normal;text-indent:0;text-align:start;text-decoration:none;line-height:normal;letter-spacing:normal;word-spacing:normal;text-transform:none;direction:ltr;block-progression:tb;writing-mode:lr-tb;text-anchor:start;baseline-shift:baseline;color:#000000;fill:#ff0000;fill-opacity:1;stroke:none;stroke-width:0.28921431;marker:none;visibility:visible;display:inline;overflow:visible;enable-background:accumulate;font-family:Sans;-inkscape-font-specification:Sans"
       id="rect4303-5-2-1-6" />
    <path
       style="fill:#b40000;fill-opacity:0.98173517;stroke:none"
       d="m 45.561779,122.45976 0,-7.00423 -4.482711,0 -4.482711,0 0,-49.029653 0,-49.02965 87.973203,0 87.9732,0 0,49.02965 0,49.029653 -4.48271,0 -4.48271,0 0,7.00423 0,7.00424 -8.12492,0 -8.12491,0 0,-7.00424 0,-7.00423 -9.52576,0 -9.52576,0 0,7.00423 0,7.00424 -8.40508,0 -8.40509,0 0,-7.00424 0,-7.00423 -27.17643,0 -27.176436,0 0,7.00423 0,7.00424 -8.124914,0 -8.124913,0 0,-7.00424 0,-7.00423 -9.525761,0 -9.52576,0 0,7.00423 0,7.00424 -8.124914,0 -8.124913,0 0,-7.00424 z M 56.275787,95.946523 c 1.453613,-1.298804 1.766266,-1.997121 1.766266,-3.945005 0,-4.061874 -3.303573,-6.395035 -7.223219,-5.101437 -3.226526,1.064852 -4.665223,5.615548 -2.582986,8.170167 2.336935,2.867091 5.43404,3.204645 8.039939,0.876275 z M 83.967349,90.510412 C 94.473993,87.834592 102.04968,80.517049 105.00232,70.19222 110.09376,52.388368 96.198666,34.206392 77.501094,34.206392 c -18.20075,0 -32.158711,17.641322 -27.726738,35.043537 3.926448,15.417264 19.388075,25.030981 34.192993,21.260483 z m 94.445191,-0.220297 c 5.46532,-1.409538 9.00767,-3.451699 13.18516,-7.601238 11.06655,-10.992516 11.08472,-28.934039 0.0405,-40.036265 -12.84907,-12.916602 -34.25358,-10.649501 -44.19808,4.681326 -5.96948,9.202798 -5.91798,21.768591 0.127,30.98591 3.94206,6.010811 9.53751,10.00434 16.78646,11.980678 4.785,1.304569 8.97223,1.301471 14.05893,-0.01042 l 2e-5,1.2e-5 z m 19.70247,-53.015566 c 2.81097,-2.810975 2.08922,-7.470645 -1.3818,-8.920929 -5.72127,-2.390498 -10.43675,4.347593 -6.08677,8.69757 2.18567,2.185662 5.40984,2.282087 7.46857,0.223359 l 0,0 z"
       id="path3053"
       inkscape:connector-curvature="0"
       transform="translate(0,648.42518)" />
  </g>
</svg>
