<?xml version="1.0" encoding="UTF-8" standalone="no"?>
<!-- Created with Inkscape (http://www.inkscape.org/) -->

<svg
   xmlns:dc="http://purl.org/dc/elements/1.1/"
   xmlns:cc="http://creativecommons.org/ns#"
   xmlns:rdf="http://www.w3.org/1999/02/22-rdf-syntax-ns#"
   xmlns:svg="http://www.w3.org/2000/svg"
   xmlns="http://www.w3.org/2000/svg"
   xmlns:sodipodi="http://sodipodi.sourceforge.net/DTD/sodipodi-0.dtd"
   xmlns:inkscape="http://www.inkscape.org/namespaces/inkscape"
   width="248.03149"
   height="403.93701"
   id="svg4086"
   version="1.1"
   inkscape:version="0.48.3.1 r9886"
   sodipodi:docname="sonarBracket_4hole_final.svg">
  <defs
     id="defs4088" />
  <sodipodi:namedview
     id="base"
     pagecolor="#ffffff"
     bordercolor="#666666"
     borderopacity="1.0"
     inkscape:pageopacity="0.0"
     inkscape:pageshadow="2"
     inkscape:zoom="1.7846344"
     inkscape:cx="66.63052"
     inkscape:cy="340.81713"
     inkscape:document-units="mm"
     inkscape:current-layer="layer1"
     showgrid="false"
     units="mm"
     showborder="true"
     inkscape:window-width="1391"
     inkscape:window-height="876"
     inkscape:window-x="49"
     inkscape:window-y="24"
     inkscape:window-maximized="1" />
  <metadata
     id="metadata4091">
    <rdf:RDF>
      <cc:Work
         rdf:about="">
        <dc:format>image/svg+xml</dc:format>
        <dc:type
           rdf:resource="http://purl.org/dc/dcmitype/StillImage" />
        <dc:title />
      </cc:Work>
    </rdf:RDF>
  </metadata>
  <g
     inkscape:label="Layer 1"
     inkscape:groupmode="layer"
     id="layer1"
     transform="translate(0,-648.42518)">
    <rect
       style="fill:none;stroke:#ff0000;stroke-width:0.31307104;stroke-linejoin:round;stroke-miterlimit:4;stroke-opacity:1;stroke-dasharray:none;display:inline"
       id="rect4121-8"
       width="176.85228"
       height="49.293228"
       x="35.589607"
       y="989.47937" />
    <rect
       style="fill:none;stroke:#ff0000;stroke-width:0.29734108;stroke-linejoin:round;stroke-miterlimit:4;stroke-opacity:1;stroke-dasharray:none;display:inline"
       id="rect4303-34"
       width="17.017332"
       height="10.01923"
       x="44.781418"
       y="1002.0297" />
    <rect
       style="fill:none;stroke:#ff0000;stroke-width:0.29734108;stroke-linejoin:round;stroke-miterlimit:4;stroke-opacity:1;stroke-dasharray:none;display:inline"
       id="rect4303-3-0"
       width="17.017332"
       height="10.01923"
       x="80.214485"
       y="1002.0297" />
    <rect
       style="fill:none;stroke:#ff0000;stroke-width:0.29734108;stroke-linejoin:round;stroke-miterlimit:4;stroke-opacity:1;stroke-dasharray:none;display:inline"
       id="rect4303-8-3"
       width="17.017332"
       height="10.01923"
       x="151.08063"
       y="1002.0297" />
    <rect
       style="fill:none;stroke:#ff0000;stroke-width:0.29734108;stroke-linejoin:round;stroke-miterlimit:4;stroke-opacity:1;stroke-dasharray:none;display:inline"
       id="rect4303-8-7-9"
       width="17.017332"
       height="10.01923"
       x="186.5137"
       y="1002.0297" />
    <path
       sodipodi:type="arc"
       style="fill:none;stroke:#ff0000;stroke-width:0.48925892;stroke-linecap:butt;stroke-linejoin:miter;stroke-miterlimit:4;stroke-opacity:1;stroke-dasharray:none;display:inline"
       id="path3153-6-4-2-90-2-9-1-6-2-3-1-6"
       sodipodi:cx="-131.10236"
       sodipodi:cy="2030.3148"
       sodipodi:rx="7.0866141"
       sodipodi:ry="7.0866141"
       d="m -124.01574,2030.3148 c 0,3.9138 -3.17279,7.0866 -7.08662,7.0866 -3.91382,0 -7.08661,-3.1728 -7.08661,-7.0866 0,-3.9138 3.17279,-7.0866 7.08661,-7.0866 3.91383,0 7.08662,3.1728 7.08662,7.0866 z"
       transform="matrix(0.72497395,0,0,0.72497395,219.06155,-445.79948)" />
    <path
       sodipodi:type="arc"
       style="fill:none;stroke:#ff0000;stroke-width:0.26022565;stroke-linejoin:round;stroke-miterlimit:4;stroke-opacity:1;stroke-dasharray:none;display:inline"
       id="path3234-71-7-8"
       sodipodi:cx="53.100777"
       sodipodi:cy="411.6492"
       sodipodi:rx="22.093023"
       sodipodi:ry="21.88549"
       d="m 75.1938,411.6492 c 0,12.08702 -9.891383,21.88549 -22.093023,21.88549 -12.20164,0 -22.093024,-9.79847 -22.093024,-21.88549 0,-12.08702 9.891384,-21.88549 22.093024,-21.88549 12.20164,0 22.093023,9.79847 22.093023,21.88549 z"
       transform="matrix(1.2755027,0,0,1.2875979,11.285562,377.22057)" />
    <path
       sodipodi:type="arc"
       style="fill:none;stroke:#ff0000;stroke-width:0.26033691;stroke-linejoin:round;stroke-miterlimit:4;stroke-opacity:1;stroke-dasharray:none;display:inline"
       id="path3234-7-1-7-2"
       sodipodi:cx="53.100777"
       sodipodi:cy="411.6492"
       sodipodi:rx="22.093023"
       sodipodi:ry="21.88549"
       d="m 75.1938,411.6492 c 0,12.08702 -9.891383,21.88549 -22.093023,21.88549 -12.20164,0 -22.093024,-9.79847 -22.093024,-21.88549 0,-12.08702 9.891384,-21.88549 22.093024,-21.88549 12.20164,0 22.093023,9.79847 22.093023,21.88549 z"
       transform="matrix(1.2754996,0,0,1.2875947,103.05738,377.22198)" />
    <path
       sodipodi:type="arc"
       style="fill:none;stroke:#ff0000;stroke-width:0.4893001;stroke-linecap:butt;stroke-linejoin:miter;stroke-miterlimit:4;stroke-opacity:1;stroke-dasharray:none;display:inline"
       id="path3153-6-4-2-90-2-9-1-6-2-3-6-1"
       sodipodi:cx="-131.10236"
       sodipodi:cy="2030.3148"
       sodipodi:rx="7.0866141"
       sodipodi:ry="7.0866141"
       d="m -124.01574,2030.3148 c 0,3.9138 -3.17279,7.0866 -7.08662,7.0866 -3.91382,0 -7.08661,-3.1728 -7.08661,-7.0866 0,-3.9138 3.17279,-7.0866 7.08661,-7.0866 3.91383,0 7.08662,3.1728 7.08662,7.0866 z"
       transform="matrix(0.7249719,0,0,0.7249719,291.69907,-594.55939)" />
    <path
       sodipodi:type="arc"
       style="fill:none;stroke:#ff0000;stroke-width:0.4893001;stroke-linecap:butt;stroke-linejoin:miter;stroke-miterlimit:4;stroke-opacity:1;stroke-dasharray:none;display:inline"
       id="path3153-6-4-2-90-2-9-1-6-2-3-1-7-0"
       sodipodi:cx="-131.10236"
       sodipodi:cy="2030.3148"
       sodipodi:rx="7.0866141"
       sodipodi:ry="7.0866141"
       d="m -124.01574,2030.3148 c 0,3.9138 -3.17279,7.0866 -7.08662,7.0866 -3.91382,0 -7.08661,-3.1728 -7.08661,-7.0866 0,-3.9138 3.17279,-7.0866 7.08661,-7.0866 3.91383,0 7.08662,3.1728 7.08662,7.0866 z"
       transform="matrix(0.7249719,0,0,0.7249719,145.71482,-535.43184)" />
    <path
       style="fill:none;stroke:#ff0000;stroke-width:0.28921431;stroke-linejoin:round;stroke-miterlimit:4;stroke-opacity:1;stroke-dasharray:none;display:inline"
       d="m 203.74152,960.43796 0,13.93708 -17.36234,0 0,-13.93708 -18.07072,-10e-4 0,13.93708 -17.36234,0 0,-13.93708 -53.501924,10e-4 0,13.93708 -17.362332,0 0,-13.93708 -18.070739,-10e-4 0,13.93708 -17.362332,0 0,-13.93708 -8.824948,-0.26767 0,-98.85803 176.810795,0 0,98.85803 z"
       id="rect4303-5-2-1"
       inkscape:connector-curvature="0"
       sodipodi:nodetypes="ccccccccccccccccccccc" />
    <rect
       style="fill:none;stroke:#ff0000;stroke-width:0.31307104;stroke-linejoin:round;stroke-miterlimit:4;stroke-opacity:1;stroke-dasharray:none;display:inline"
       id="rect4121-8-1"
       width="176.85228"
       height="49.293228"
       x="35.877289"
       y="795.37372" />
    <rect
       style="fill:none;stroke:#ff0000;stroke-width:0.29734108;stroke-linejoin:round;stroke-miterlimit:4;stroke-opacity:1;stroke-dasharray:none;display:inline"
       id="rect4303-34-3"
       width="17.017332"
       height="10.01923"
       x="45.069092"
       y="807.92407" />
    <rect
       style="fill:none;stroke:#ff0000;stroke-width:0.29734108;stroke-linejoin:round;stroke-miterlimit:4;stroke-opacity:1;stroke-dasharray:none;display:inline"
       id="rect4303-3-0-5"
       width="17.017332"
       height="10.01923"
       x="80.502167"
       y="807.92407" />
    <rect
       style="fill:none;stroke:#ff0000;stroke-width:0.29734108;stroke-linejoin:round;stroke-miterlimit:4;stroke-opacity:1;stroke-dasharray:none;display:inline"
       id="rect4303-8-3-9"
       width="17.017332"
       height="10.01923"
       x="151.36832"
       y="807.92407" />
    <rect
       style="fill:none;stroke:#ff0000;stroke-width:0.29734108;stroke-linejoin:round;stroke-miterlimit:4;stroke-opacity:1;stroke-dasharray:none;display:inline"
       id="rect4303-8-7-9-8"
       width="17.017332"
       height="10.01923"
       x="186.80139"
       y="807.92407" />
    <path
       sodipodi:type="arc"
       style="fill:none;stroke:#ff0000;stroke-width:0.48925892;stroke-linecap:butt;stroke-linejoin:miter;stroke-miterlimit:4;stroke-opacity:1;stroke-dasharray:none;display:inline"
       id="path3153-6-4-2-90-2-9-1-6-2-3-1-6-4"
       sodipodi:cx="-131.10236"
       sodipodi:cy="2030.3148"
       sodipodi:rx="7.0866141"
       sodipodi:ry="7.0866141"
       d="m -124.01574,2030.3148 c 0,3.9138 -3.17279,7.0866 -7.08662,7.0866 -3.91382,0 -7.08661,-3.1728 -7.08661,-7.0866 0,-3.9138 3.17279,-7.0866 7.08661,-7.0866 3.91383,0 7.08662,3.1728 7.08662,7.0866 z"
       transform="matrix(0.72497395,0,0,0.72497395,219.34923,-639.90521)" />
    <path
       sodipodi:type="arc"
       style="fill:none;stroke:#ff0000;stroke-width:0.26022565;stroke-linejoin:round;stroke-miterlimit:4;stroke-opacity:1;stroke-dasharray:none;display:inline"
       id="path3234-71-7-8-1"
       sodipodi:cx="53.100777"
       sodipodi:cy="411.6492"
       sodipodi:rx="22.093023"
       sodipodi:ry="21.88549"
       d="m 75.1938,411.6492 c 0,12.08702 -9.891383,21.88549 -22.093023,21.88549 -12.20164,0 -22.093024,-9.79847 -22.093024,-21.88549 0,-12.08702 9.891384,-21.88549 22.093024,-21.88549 12.20164,0 22.093023,9.79847 22.093023,21.88549 z"
       transform="matrix(1.2755027,0,0,1.2875979,11.283886,184.42409)" />
    <path
       sodipodi:type="arc"
       style="fill:none;stroke:#ff0000;stroke-width:0.26033691;stroke-linejoin:round;stroke-miterlimit:4;stroke-opacity:1;stroke-dasharray:none;display:inline"
       id="path3234-7-1-7-2-7"
       sodipodi:cx="53.100777"
       sodipodi:cy="411.6492"
       sodipodi:rx="22.093023"
       sodipodi:ry="21.88549"
       d="m 75.1938,411.6492 c 0,12.08702 -9.891383,21.88549 -22.093023,21.88549 -12.20164,0 -22.093024,-9.79847 -22.093024,-21.88549 0,-12.08702 9.891384,-21.88549 22.093024,-21.88549 12.20164,0 22.093023,9.79847 22.093023,21.88549 z"
       transform="matrix(1.2754996,0,0,1.2875947,103.05571,184.4255)" />
    <path
       sodipodi:type="arc"
       style="fill:none;stroke:#ff0000;stroke-width:0.4893001;stroke-linecap:butt;stroke-linejoin:miter;stroke-miterlimit:4;stroke-opacity:1;stroke-dasharray:none;display:inline"
       id="path3153-6-4-2-90-2-9-1-6-2-3-6-1-4"
       sodipodi:cx="-131.10236"
       sodipodi:cy="2030.3148"
       sodipodi:rx="7.0866141"
       sodipodi:ry="7.0866141"
       d="m -124.01574,2030.3148 c 0,3.9138 -3.17279,7.0866 -7.08662,7.0866 -3.91382,0 -7.08661,-3.1728 -7.08661,-7.0866 0,-3.9138 3.17279,-7.0866 7.08661,-7.0866 3.91383,0 7.08662,3.1728 7.08662,7.0866 z"
       transform="matrix(0.7249719,0,0,0.7249719,291.69907,-787.35428)" />
    <path
       sodipodi:type="arc"
       style="fill:none;stroke:#ff0000;stroke-width:0.4893001;stroke-linecap:butt;stroke-linejoin:miter;stroke-miterlimit:4;stroke-opacity:1;stroke-dasharray:none;display:inline"
       id="path3153-6-4-2-90-2-9-1-6-2-3-1-7-0-0"
       sodipodi:cx="-131.10236"
       sodipodi:cy="2030.3148"
       sodipodi:rx="7.0866141"
       sodipodi:ry="7.0866141"
       d="m -124.01574,2030.3148 c 0,3.9138 -3.17279,7.0866 -7.08662,7.0866 -3.91382,0 -7.08661,-3.1728 -7.08661,-7.0866 0,-3.9138 3.17279,-7.0866 7.08661,-7.0866 3.91383,0 7.08662,3.1728 7.08662,7.0866 z"
       transform="matrix(0.7249719,0,0,0.7249719,145.71315,-728.22833)" />
    <path
       style="fill:none;stroke:#ff0000;stroke-width:0.28921431;stroke-linejoin:round;stroke-miterlimit:4;stroke-opacity:1;stroke-dasharray:none;display:inline"
       d="m 203.73985,767.64148 0,13.93708 -17.36234,0 0,-13.93708 -18.07072,-10e-4 0,13.93708 -17.36234,0 0,-13.93708 -53.501934,10e-4 0,13.93708 -17.36233,0 0,-13.93708 -18.07074,-10e-4 0,13.93708 -17.36233,0 0,-13.93708 -8.82495,-0.26767 0,-98.85803 176.810804,0 0,98.85803 z"
       id="rect4303-5-2-1-9"
       inkscape:connector-curvature="0"
       sodipodi:nodetypes="ccccccccccccccccccccc" />
  </g>
</svg>
